PathFileType	4	(X/Y/Z)	./resultDataOpenSim/trcMotMarkerGrf/sub06/qtm-05-04.trc
DataRate	CameraRate	NumFrames	NumMarkers	Units	OrigDataRate	OrigDataStartFrame	OrigNumFrames
250.000000	250.000000	9	24	m	250.000000	196	521
Frame#	Time	L.Toe.Tip			R.Toe.Tip			L.Ankle.Lat			R.Ankle.Lat			L.Ankle.Med			R.Ankle.Med			L.Heel			R.Heel			L.Knee.Lat			R.Knee.Lat			L.Knee.Med			R.Knee.Med			L.Thigh.Upper			R.Thigh.Upper			L.ASIS			R.ASIS			V.Sacral			L.Acromium			R.Acromium			C7			L.Elbow			R.Elbow			L.Wrist.Lat			R.Wrist.Lat
		X1	Y1	Z1	X2	Y2	Z2	X3	Y3	Z3	X4	Y4	Z4	X5	Y5	Z5	X6	Y6	Z6	X7	Y7	Z7	X8	Y8	Z8	X9	Y9	Z9	X10	Y10	Z10	X11	Y11	Z11	X12	Y12	Z12	X13	Y13	Z13	X14	Y14	Z14	X15	Y15	Z15	X16	Y16	Z16	X17	Y17	Z17	X18	Y18	Z18	X19	Y19	Z19	X20	Y20	Z20	X21	Y21	Z21	X22	Y22	Z22	X23	Y23	Z23	X24	Y24	Z24

196	0.78	0.11598542	-0.064756619	0.0013834476	-0.70168763	0.045473543	0.14427824	-0.0079451914	-0.031419675	-0.021122305	-0.71295959	0.17676888	0.18454532	-0.010061193	-0.019531733	0.066820456	-0.67120504	0.16157013	0.10713917	-0.084250861	-0.059192669	0.020732871	-0.7367353	0.22048206	0.12102362	0.070739674	0.34021407	-0.034033877	-0.34331268	0.30366049	0.23147038	0.033760661	0.33845385	0.082838174	-0.34341545	0.27809418	0.10384918	-0.1192999	0.67978183	-0.11121767	-0.23397925	0.6356171	0.22514317	-0.069052506	0.71099806	-0.048225843	-0.11824091	0.68833894	0.18929735	-0.282352	0.77719786	0.050773793	-0.17398404	1.1676439	-0.1477242	-0.18839022	1.182429	0.2184144	-0.25944147	1.2118935	0.02879594	-0.2685483	0.87277081	-0.1778379	-0.25055573	0.86875235	0.31661528	-0.2122678	0.64759973	-0.25310557	-0.023140654	0.76404357	0.31879065
197	0.784	0.115968	-0.064810355	0.0012820624	-0.69379257	0.047673999	0.14474506	-0.0076613708	-0.031880377	-0.021176283	-0.7004094	0.18040783	0.18541962	-0.0097116688	-0.019755654	0.066825926	-0.65901216	0.16471988	0.10773511	-0.084241548	-0.05913613	0.020859811	-0.72280021	0.22554843	0.12249993	0.074616451	0.33840802	-0.035907314	-0.32988558	0.29982615	0.23285087	0.040684207	0.33723629	0.081026879	-0.32967403	0.27334093	0.10438201	-0.11412585	0.67904934	-0.11201052	-0.22775746	0.63396698	0.22473265	-0.063381162	0.71104238	-0.04920587	-0.11165292	0.68726054	0.18812988	-0.27652229	0.77673778	0.050968715	-0.16562793	1.1671828	-0.14815194	-0.18010415	1.1822216	0.21765003	-0.25137163	1.2119821	0.028155164	-0.25922466	0.87173994	-0.17816419	-0.24539748	0.8689494	0.31478373	-0.20111297	0.64690103	-0.25318799	-0.01989722	0.76079868	0.31935842
198	0.788	0.11594831	-0.064855676	0.0011599445	-0.68449477	0.050046005	0.14546613	-0.0074284756	-0.03234617	-0.021250819	-0.6875304	0.18395297	0.18609941	-0.0092521456	-0.019957901	0.066796799	-0.64667155	0.16819708	0.10803584	-0.084219946	-0.05906489	0.021045255	-0.70887813	0.23040597	0.12378992	0.077939895	0.33658014	-0.038009818	-0.3162338	0.29617562	0.23411623	0.046950946	0.33573688	0.079122649	-0.31615908	0.26917984	0.10476694	-0.10897646	0.67870669	-0.11287031	-0.22122937	0.63252831	0.22393105	-0.057775161	0.71119318	-0.050185993	-0.10516339	0.68650925	0.18705243	-0.27064155	0.77650652	0.050926149	-0.15726367	1.1669008	-0.14853484	-0.1720358	1.182169	0.21688545	-0.24339811	1.2121932	0.027503783	-0.2499502	0.8708711	-0.17846426	-0.24030024	0.86938367	0.31292554	-0.18983918	0.6463974	-0.25321479	-0.01677844	0.75762093	0.31991118
199	0.792	0.11593139	-0.064893626	0.0010199391	-0.67394481	0.052494502	0.14661357	-0.007202963	-0.032792626	-0.021383781	-0.67443879	0.18741275	0.18653326	-0.0087148114	-0.020113245	0.066679087	-0.63415046	0.17194064	0.10806418	-0.084192484	-0.058994492	0.02119648	-0.69499969	0.23500499	0.1247468	0.08076662	0.3347327	-0.04025424	-0.30236203	0.29269471	0.23526791	0.052654096	0.33404103	0.077254888	-0.30281638	0.26574371	0.10514818	-0.10385984	0.67880859	-0.11375385	-0.21407764	0.63124306	0.22240877	-0.052228433	0.71146123	-0.05118456	-0.098784699	0.68611679	0.18606002	-0.26477745	0.7765147	0.050721882	-0.14888662	1.1667901	-0.14889042	-0.16420178	1.18227	0.21613753	-0.23553787	1.2125303	0.026822965	-0.2407376	0.87016316	-0.17871668	-0.23523309	0.8700236	0.31105559	-0.17846028	0.64607287	-0.25319511	-0.013771017	0.75452309	0.32045766
200	0.796	0.11590154	-0.06492422	0.0008689309	-0.66233148	0.055056713	0.14813797	-0.0069797519	-0.033218895	-0.021572694	-0.66120259	0.19081499	0.18674919	-0.0081860205	-0.020199591	0.06646051	-0.6212849	0.17581998	0.10791579	-0.084186189	-0.058951428	0.021288583	-0.68097291	0.23932252	0.12531636	0.083147336	0.33284892	-0.042546048	-0.28830084	0.28938616	0.23629531	0.057919882	0.33216541	0.075490875	-0.28942817	0.26311545	0.10555102	-0.09881942	0.67931828	-0.11458779	-0.20623704	0.63006542	0.2200566	-0.046727397	0.7118689	-0.052193476	-0.092572523	0.68607558	0.18519748	-0.25900953	0.77678167	0.050436044	-0.1405145	1.1668525	-0.14922389	-0.15660788	1.1825333	0.21542309	-0.2278069	1.2129946	0.026097396	-0.23151374	0.86960077	-0.17902312	-0.23018694	0.87083801	0.30919477	-0.16698805	0.64592412	-0.25313316	-0.010873166	0.75151632	0.32098608
201	0.8	0.11583917	-0.064951277	0.00071508773	-0.64975343	0.057930528	0.14984374	-0.0068011958	-0.033629723	-0.021797021	-0.64772892	0.19421972	0.18685501	-0.0077691332	-0.020213644	0.066178307	-0.60797052	0.17968966	0.10771515	-0.08423105	-0.058956944	0.021371486	-0.66666241	0.24330187	0.12553082	0.085135678	0.33091315	-0.044777758	-0.274069	0.28630166	0.23718609	0.062805657	0.33012148	0.073839347	-0.27585321	0.26132085	0.10596863	-0.093892796	0.68012932	-0.11530125	-0.19821453	0.6290807	0.21739871	-0.041253599	0.71243001	-0.053178458	-0.086571311	0.68635107	0.18451703	-0.25342399	0.77733258	0.050147603	-0.13216775	1.1670908	-0.14953915	-0.14925893	1.1829708	0.21475409	-0.22021142	1.2135837	0.025320091	-0.22219095	0.86916954	-0.17951031	-0.22518039	0.87181613	0.30733816	-0.15542303	0.64595743	-0.25301849	-0.0081046461	0.74861294	0.32146658
202	0.804	0.11573889	-0.064982268	0.00056695709	-0.63622254	0.061269397	0.15156963	-0.0067084785	-0.034011752	-0.02204043	-0.63382182	0.19768238	0.18697137	-0.0074988408	-0.020168101	0.065879775	-0.59418556	0.18339926	0.10756173	-0.084336147	-0.059010876	0.021503407	-0.65217394	0.24688138	0.12547275	0.086814051	0.32894536	-0.046831652	-0.25965446	0.28352909	0.23793449	0.067249469	0.32796238	0.072272258	-0.26207851	0.26030112	0.10640499	-0.089062547	0.68112304	-0.11588293	-0.19073771	0.62845317	0.21522542	-0.035821851	0.71314023	-0.054095713	-0.080780885	0.68689181	0.18402787	-0.24810789	0.77819327	0.049934019	-0.1238238	1.1674969	-0.1498555	-0.14216255	1.1835866	0.21413529	-0.21274626	1.2142985	0.024496686	-0.21281943	0.86888323	-0.18008657	-0.22021853	0.8729517	0.30544391	-0.14375866	0.64618014	-0.25283502	-0.0054909592	0.74583172	0.32188299
203	0.808	0.11561334	-0.065021539	0.00043062739	-0.62176968	0.064955764	0.15325687	-0.0067065528	-0.034342483	-0.022300847	-0.61937368	0.20118823	0.18715281	-0.0073394957	-0.020090458	0.065597521	-0.57993903	0.18683657	0.10749293	-0.084476263	-0.059088857	0.021665333	-0.63760287	0.25009464	0.12528251	0.088315331	0.3270258	-0.048604857	-0.24505561	0.28115565	0.23853433	0.071095198	0.32581954	0.070793825	-0.24819149	0.25992283	0.10678104	-0.084265811	0.68222094	-0.11638521	-0.18408038	0.62828671	0.21382175	-0.030495237	0.71398899	-0.05490517	-0.075154149	0.68764044	0.18369055	-0.24311828	0.77937624	0.049854639	-0.11543934	1.1680551	-0.15018834	-0.13531777	1.1843797	0.21357061	-0.20539513	1.2151487	0.023646259	-0.20352745	0.86875991	-0.18053675	-0.21526339	0.87421682	0.30343696	-0.13199465	0.64659471	-0.25257541	-0.0030285028	0.7431897	0.32224378
204	0.812	0.11548126	-0.065064237	0.00030292854	-0.6065277	0.068633937	0.15492129	-0.0067748481	-0.034606356	-0.022584593	-0.60442778	0.2046389	0.18738431	-0.0072406554	-0.020012594	0.065348386	-0.56529687	0.18998802	0.10751616	-0.084610974	-0.059161184	0.021777497	-0.62287853	0.25306638	0.12510909	0.089800432	0.32528972	-0.050048829	-0.23031054	0.27923991	0.23896981	0.074175658	0.32390717	0.069493356	-0.23431952	0.26002899	0.10693776	-0.079416377	0.68340406	-0.1168727	-0.17802429	0.62858312	0.21292952	-0.02532299	0.71497602	-0.055589108	-0.069623497	0.68855203	0.18345563	-0.2384177	0.78085539	0.049910315	-0.10704159	1.1687579	-0.15050765	-0.12870495	1.1853503	0.21306959	-0.19813364	1.2161519	0.022798842	-0.19434557	0.86878457	-0.18081361	-0.21026377	0.87557259	0.30123001	-0.12014155	0.64719894	-0.25224533	-0.00067720409	0.74069327	0.32256519
